<svg xmlns="http://www.w3.org/2000/svg" fill="none" viewBox="0 0 500 500">
  <path fill="black" fill-rule="evenodd" d="M60 123.333C60 88.3553 88.3553 60 123.333 60c34.978 0 63.334 28.3553 63.334 63.333v63.334h-63.334C88.3553 186.667 60 158.311 60 123.333Zm253.333 63.334H186.667v126.666h-63.333C88.3554 313.333 60 341.688 60 376.666 60 411.645 88.3553 440 123.333 440c34.978 0 63.334-28.355 63.334-63.333v-63.334h126.666v63.333c0 34.979 28.355 63.334 63.333 63.334C411.645 440 440 411.645 440 376.666c0-34.978-28.355-63.333-63.334-63.333h-63.333V186.667Zm0 0h63.334c34.978 0 63.333-28.356 63.333-63.334C440 88.3553 411.645 60 376.666 60c-34.978 0-63.333 28.3554-63.333 63.334v63.333Z" clip-rule="evenodd"/>
</svg>